# Blender v2.90.1 OBJ File: 'modeloUnido.blend'
# www.blender.org
mtllib lampara.mtl
o lampara_Plane.004
v -18.873568 5.457775 -7.300000
v -17.473566 5.457775 -7.300000
v -18.873568 5.457775 -8.700000
v -17.473566 5.457775 -8.700000
v -18.873568 5.457775 -7.300000
v -17.473566 5.457775 -7.300000
v -18.873568 5.457775 -8.700000
v -17.473566 5.457775 -8.700000
v -19.223566 6.997775 -6.950000
v -17.123568 6.997775 -6.950000
v -19.223566 6.997775 -9.050000
v -17.123568 6.997775 -9.050000
v -18.173567 8.047774 -8.000000
vt 0.000000 0.000000
vt 0.000000 1.000000
vt 1.000000 1.000000
vt 1.000000 0.000000
vt -0.007054 0.995985
vt -0.007180 -0.010341
vt 0.975197 0.000099
vt 0.975197 0.982480
vt 0.000000 1.000000
vt 1.000000 1.000000
vt 1.000000 0.000000
vt 0.000000 0.000000
vt 0.982350 0.048309
vt 0.982476 1.010341
vt 0.000099 0.999901
vt -0.003273 -0.001353
vt 0.000931 0.011670
vt 0.992946 -0.004015
vt 0.987599 0.997982
vt 0.992820 0.989659
vt -0.017650 1.004015
vt 0.000099 0.017520
vt 1.000000 0.000000
vt 1.000000 1.000000
vt 1.000000 0.000000
vt 0.000000 1.000000
vt 0.000000 0.000000
vt 0.000000 1.000000
vt 1.000000 1.000000
vt 0.000000 0.000000
vn 0.0000 -1.0000 0.0000
vn 0.0000 -0.2216 -0.9751
vn 0.0000 0.0000 1.0000
vn 0.0000 -0.2216 0.9751
vn 0.9751 -0.2216 0.0000
vn -0.9751 -0.2216 0.0000
vn 0.7071 0.7071 0.0000
vn -0.7071 0.7071 0.0000
vn 0.0000 0.7071 -0.7071
vn 0.0000 0.7071 0.7071
g lampara_Plane.004_Material.089
usemtl Material.089
s off
f 1/1/1 3/2/1 4/3/1 2/4/1
f 8/5/2 7/6/2 11/7/2 12/8/2
f 4/3/3 3/2/3 7/9/3 8/10/3
f 1/1/3 2/4/3 6/11/3 5/12/3
f 2/4/3 4/3/3 8/10/3 6/11/3
f 3/2/3 1/1/3 5/12/3 7/9/3
f 5/13/4 6/14/4 10/15/4 9/16/4
f 6/17/5 8/18/5 12/19/5 10/15/5
f 7/20/6 5/21/6 9/22/6 11/7/6
g lampara_Plane.004_Material.088
usemtl Material.088
f 10/23/7 12/24/7 13/25/7
f 11/26/8 9/27/8 13/28/8
f 12/24/9 11/26/9 13/29/9
f 9/27/10 10/23/10 13/30/10
